#!OML:ASF F:\twosubjects\two\wednesday\Session 1\rory1.ASF
:FULLY-SPECIFIED
:DEGREES
1112
root 9.05635 18.3119 36.6427 187.743 41.0047 -171.441
lowerback 12.9406 8.00059 7.46705
upperback 1.70444 11.7104 -3.05916
thorax -3.20362 5.83748 -8.99558
lowerneck 3.77894 1.52685 18.0116
upperneck 2.01935 2.90706 -12.6846
head 0.41771 1.63204 -6.83277
rclavicle -1.82882e-014 1.82882e-014
rhumerus -47.8479 -33.9138 -60.6643
rradius 30.2762
rwrist 3.4154
rhand -26.1235 43.7706
rfingers 7.12502
rthumb 0.426513 13.7912
lclavicle -1.82882e-014 1.82882e-014
lhumerus -36.8617 -9.85896 83.36
lradius 34.562
lwrist 13.4155
lhand -27.7201 10.8707
lfingers 7.12502
lthumb -1.1156 -319.152
rfemur -17.3736 1.80253 26.7034
rtibia 41.8039
rfoot -24.9416 -21.857
rtoes 11.0543
lfemur -39.6494 11.7144 -13.2906
ltibia 79.9074
lfoot -1.86282 -0.194484
ltoes -12.7325
1113
root 8.91961 18.3692 36.7097 187.625 40.935 -171.82
lowerback 12.6941 8.08142 7.19778
upperback 1.61144 11.7573 -3.12885
thorax -3.1979 5.85829 -8.89469
lowerneck 3.91848 1.43072 17.7602
upperneck 2.00415 2.78916 -12.4001
head 0.365217 1.57545 -6.7014
rclavicle -7.33515e-014 -2.38542e-014
rhumerus -48.6872 -33.7355 -60.6322
rradius 30.3347
rwrist 3.4385
rhand -26.0656 43.8626
rfingers 7.12502
rthumb 0.482433 13.8834
lclavicle -7.33515e-014 -2.38542e-014
lhumerus -37.4477 -9.11143 82.8555
lradius 34.8001
lwrist 12.9469
lhand -24.665 6.54511
lfingers 7.12502
lthumb 1.83513 -323.483
rfemur -17.878 1.31945 26.1325
rtibia 41.5233
rfoot -25.3388 -21.8484
rtoes 13.5602
lfemur -38.1558 11.8639 -12.6993
ltibia 80.4454
lfoot -1.43873 -0.160905
ltoes -13.6805
1114
root 8.78353 18.4125 36.7732 187.579 40.9462 -172.082
lowerback 12.3931 8.17399 7.03954
upperback 1.52451 11.8331 -3.13236
thorax -3.14285 5.89446 -8.77384
lowerneck 4.22413 1.32241 17.303
upperneck 1.92435 2.67158 -12.0581
head 0.263846 1.52156 -6.51987
rclavicle 8.0309e-014 3.73715e-014
rhumerus -49.6327 -33.6791 -60.2872
rradius 30.3383
rwrist 3.93474
rhand -26.1106 44.2337
rfingers 7.12502
rthumb 0.438877 14.2544
lclavicle 8.0309e-014 3.73715e-014
lhumerus -37.4201 -8.46538 82.2941
lradius 34.2994
lwrist 12.4665
lhand -24.0159 12.0618
lfingers 7.12502
lthumb 2.46196 -317.973
rfemur -18.3991 0.798827 25.6522
rtibia 41.2586
rfoot -25.2456 -22.0166
rtoes 13.9183
lfemur -36.5441 12.0248 -12.0413
ltibia 80.7734
lfoot -0.812564 0.064802
ltoes -11.8281
1115
root 8.6375 18.43 36.8405 187.988 40.8683 -171.926
lowerback 11.98 8.16778 7.49853
upperback 1.35897 11.847 -3.18959
thorax -2.98584 5.89679 -9.01715
lowerneck 4.63337 1.21976 17.055
upperneck 1.83086 2.59036 -11.9651
head 0.152898 1.49156 -6.45466
rclavicle 1.15295e-014 -6.36111e-015
rhumerus -50.5877 -33.9263 -59.8867
rradius 30.186
rwrist 4.59389
rhand -26.3504 44.8041
rfingers 7.12502
rthumb 0.207355 14.8244
lclavicle 1.15295e-014 -6.36111e-015
lhumerus -38.0048 -7.97974 81.6566
lradius 34.6263
lwrist 12.526
lhand -22.4855 15.7779
lfingers 7.12502
lthumb 3.93995 -314.279
rfemur -19.1745 0.404752 25.5048
rtibia 41.0178
rfoot -24.9863 -21.9632
rtoes 13.7977
lfemur -35.3204 12.2408 -11.0552
ltibia 81.0676
lfoot -0.0833993 0.657911
ltoes -5.86787
1116
root 8.49208 18.4368 36.9085 188.234 40.8352 -171.907
lowerback 11.6394 8.19561 7.7122
upperback 1.31482 11.8835 -3.32427
thorax -2.7667 5.92652 -9.21343
lowerneck 4.48056 1.20793 17.3826
upperneck 1.86293 2.56653 -12.2106
head 0.1904 1.47838 -6.58604
rclavicle -5.10877e-014 9.54166e-015
rhumerus -51.1966 -34.4044 -59.8526
rradius 30.0202
rwrist 4.607
rhand -26.7529 45.0297
rfingers 7.12502
rthumb -0.18146 15.05
lclavicle -5.10877e-014 9.54166e-015
lhumerus -38.984 -7.69365 81.1346
lradius 35.6606
lwrist 13.3972
lhand -21.8214 16.0438
lfingers 7.12502
lthumb 4.58128 -314.026
rfemur -19.8933 0.0728746 25.2473
rtibia 40.8305
rfoot -23.9396 -22.1512
rtoes 11.3252
lfemur -33.9797 12.5416 -10.1149
ltibia 81.2293
lfoot 0.28092 1.27534
ltoes -4.84157
